<?xml version="1.0" standalone="no"?>
<!DOCTYPE svg PUBLIC "-//W3C//DTD SVG 20010904//EN"
 "http://www.w3.org/TR/2001/REC-SVG-20010904/DTD/svg10.dtd">
<svg version="1.0" xmlns="http://www.w3.org/2000/svg"
 width="700.000000pt" height="700.000000pt" viewBox="0 0 700.000000 700.000000"
 preserveAspectRatio="xMidYMid meet">
<metadata>
Created by potrace 1.11, written by Peter Selinger 2001-2013
</metadata>
<g transform="translate(0.000000,700.000000) scale(0.100000,-0.100000)"
fill="#000000" stroke="none">
<path d="M3130 6990 c-638 -60 -1204 -266 -1700 -620 -627 -447 -1087 -1098
-1298 -1836 -215 -750 -162 -1575 146 -2281 241 -552 614 -1024 1098 -1390
115 -87 380 -260 504 -329 406 -224 839 -360 1310 -410 170 -18 584 -12 750
10 633 86 1193 322 1685 712 141 112 417 388 529 529 410 518 649 1103 720
1767 17 159 18 508 1 668 -44 423 -155 809 -338 1175 -139 277 -382 638 -572
850 -45 50 -90 101 -101 113 -32 40 -235 223 -336 304 -491 396 -1088 646
-1723 724 -153 18 -540 26 -675 14z m525 -300 c626 -54 1187 -277 1690 -674
131 -103 389 -364 491 -496 279 -361 462 -732 569 -1154 74 -292 90 -432 90
-771 -1 -250 -4 -310 -23 -435 -90 -577 -295 -1050 -650 -1500 -96 -121 -359
-384 -482 -482 -448 -355 -960 -575 -1530 -655 -95 -13 -192 -18 -410 -18
-249 0 -305 3 -440 24 -557 84 -1067 306 -1502 653 -129 103 -370 343 -469
468 -622 780 -834 1762 -589 2725 54 211 117 381 220 590 100 202 180 334 303
498 297 394 666 699 1112 917 373 183 711 275 1150 313 92 8 358 6 470 -3z"/>
<path d="M2878 5707 c-367 -1032 -447 -1251 -460 -1258 -13 -7 -229 -85 -1305
-467 -134 -47 -243 -89 -243 -93 0 -3 141 -114 312 -247 172 -132 466 -358
653 -502 187 -144 341 -269 343 -278 1 -9 13 -383 26 -830 12 -447 25 -814 27
-816 3 -3 395 262 1149 780 125 86 223 147 235 146 11 -1 371 -105 800 -232
428 -126 780 -228 782 -226 2 2 -447 1543 -461 1582 -2 6 207 319 464 695
l468 684 -36 7 c-20 4 -395 17 -832 28 -437 12 -795 22 -796 23 -18 29 -1008
1307 -1012 1307 -4 0 -55 -136 -114 -303z m2227 -1347 c-3 -5 -10 -10 -16 -10
-5 0 -9 5 -9 10 0 6 7 10 16 10 8 0 12 -4 9 -10z m-358 -2227 c-5 -5 -106 24
-116 34 -3 2 15 24 40 49 l44 45 19 -61 c10 -34 16 -64 13 -67z m-2217 -342
c0 -6 -4 -13 -10 -16 -5 -3 -10 1 -10 9 0 9 5 16 10 16 6 0 10 -4 10 -9z"/>
</g>
</svg>
